<svg xmlns="http://www.w3.org/2000/svg" width="49.1724" height="22.7361" viewBox="0 0 49.1724 22.7361"><title>Border 3ldpi</title><g id="Layer_2" data-name="Layer 2"><g id="Layer_1-2" data-name="Layer 1"><path d="M9.8761,2.7241c4.4612-1.4995,9.9093.4541,14.4131-.9082C29.6934,0,35.5486,0,40.9532,0c0,.9077-.45,2.27,0,2.7241,1.8014,1.3614,1.8014,3.1783,1.8014,4.9942,0,.9082-1.3509,0-.9009.9082-1.3509,0-3.6042.4541-2.2518,1.3613.45.9087,2.2518,0,2.7018,1.3618s-.45,2.7246,0,4.0855H44.106c.45.91-.45,2.7256,0,2.7256,1.351.9082,3.1529.4536,4.9533.4536,0,.9082.4514,1.8159-.4495,2.2705-15.764.9077-31.9781,2.7241-47.7417,1.3608-1.8014-.4531-.45-2.269.9009-3.6313-.45.4546-.45-.9082-.9009-.4536,0-1.3623.9009-3.6319,2.7028-4.0865H2.22c-.45-.4536,0-1.3623,0-2.27.451,0,.9009,0,.9009-.4551V9.5342H1.3191c.45,0,.9,0,.9-.4536V7.2632c.9009-.4531,2.2519.4551,3.1533,0V5.9024c-.9014-.4546-2.2523,0-3.1533,0,.451-.4546.451-.9082.451-1.8169,1.3509-.4546,2.7023.9087,4.0529-.4546H5.3728C6.2733,1.3609,8.5247,3.1782,9.8761,2.7241Z"/></g></g></svg>