<svg xmlns="http://www.w3.org/2000/svg" width="203.0013" height="49.7257" viewBox="0 0 203.0013 49.7257"><defs><style>.cls-1{fill:none;}.cls-2{fill:#202020;}</style></defs><title>Border 7ldpi</title><g id="Layer_2" data-name="Layer 2"><g id="Layer_1-2" data-name="Layer 1"><path class="cls-1" d="M.0012,24.8416h203"/><path class="cls-2" d="M6.7,7.2109c.1983.081.3933.1792.5861.2632A3.2083,3.2083,0,0,1,5.717,7.562c6.1591,2.0976,14.2694.8364,19.4971-1.2637,1.8859.0742,3.5622-.5488,3.742-1.4019.1754-.8535-1.2137-1.6054-3.1156-1.6855a7.6409,7.6409,0,0,1-1.21-.3125A38.5651,38.5651,0,0,0,14.9437,0c.7039.25,1.439.5,2.144.7495A17.5349,17.5349,0,0,0,13.8109.3144c.1231.1558.2822.3125.4063.47C10.581-.3482,5.595.0581,3.0818,1.6816.5589,3.31,1.4478,5.54,5.0852,6.6718Z"/><path class="cls-2" d="M13.4862,12.1591c-2.1777-.56-4.2681-1.1591-6.3619-1.7729l-.4138-.29L6.85,11.4062l.0413-.084c1.9611-1.0976,5.1931-1.5449,8.17-1.8574l1.062-.19a1.46,1.46,0,0,0,.9533-.7022c.2483-.63-.68-1.2217-2.0666-1.3271L13.4111,7.13C9.5166,6.3764,3.3879,6.3452,1.2158,8.5639c-.489.5142-.0609,1.1646.0446,1.7632-.1482.8662,1.3172,1.624,3.2626,1.6855,1.949.06,3.6223-.5927,3.7561-1.4663.3291.063.67.1216.9968.1822-.257.1089-.52.205-.7811.312.55-.7569,2.3247-.9273,3.645-1.33L14.1192,9.5,13.0014,7.47l-1.03.268a2.8065,2.8065,0,0,1,.2168.2222A52.9674,52.9674,0,0,1,6.2355,9.4252l-2.7015.74c-.7322.3847-.6613.959.1394,1.312l1.1983.4385c-.1809-.0913-.3616-.168-.5414-.2593,2.7626.46,5.6765.7295,8.41,1.2158a1.5209,1.5209,0,0,0,1.1853-.1894C14.1192,12.4838,13.9329,12.248,13.4862,12.1591Z"/><path class="cls-2" d="M3.7332,12.43a3.5712,3.5712,0,0,0-1.5164-.2832c-.1535.0918-.232.1372-.2722.1621.2363.0938.5555.2227.8748.3482C3.4479,12.9062,3.7714,12.7143,3.7332,12.43Z"/><path class="cls-2" d="M1.9446,12.3085l-.365-.1464c.0839.0683.1655.13.2441.1914a.4677.4677,0,0,0,.0718-.0161Z"/><path class="cls-2" d="M122.6373,8.5781c8.5492.4311,17.1334.72,25.7142.9311.2876.0083.5294-.084.5435-.2124.0143-.11-.209-.2241-.475-.2226-8.5851-.23-17.1267-.524-25.6739-.9536-.2876-.0049-.525.0864-.5642.2055C122.1679,8.455,122.3694,8.562,122.6373,8.5781Z"/><path class="cls-2" d="M186.6826,21.0854c-.2037.0962-.1961.2271.0154.3169a.9963.9963,0,0,0,.7059-.0064c.1709-.0815.1644-.2392-.0163-.3159A.9958.9958,0,0,0,186.6826,21.0854Z"/><path class="cls-2" d="M184.8438,30.9414a20.4143,20.4143,0,0,0-3.353.7319,1.0646,1.0646,0,0,1-.5622-.0112c.07.2031-.1591.3867-.5914.4721-8.52,1.6856-17.6835,2.357-26.7077,3.2559a1.0516,1.0516,0,0,1-.3813.4736,4.9124,4.9124,0,0,1-3.1787.6792l-.9814-.1255c-3.9632-.2944-7.9176-.5239-11.8589-.8432a12.1019,12.1019,0,0,1-2.7593.4336c-3.4085.6289-6.828,1.2265-10.3226,1.6855a.6176.6176,0,0,1,.3507.49c-.0676.4375-.877.7622-1.8214.7456-.4772.0127-.9522.0205-1.4281.0278,1.3669.105,2.7363.2153,4.0992.34a2.8662,2.8662,0,0,1,.5446.0742c1.499.0176,3.0132.01,4.5535-.0312A313.3475,313.3475,0,0,0,169.07,35.3886a.9985.9985,0,0,1,.71.0464c.122.104.1.2481-.13.3057-7.9055,2.1909-14.7444,5.0718-23.6827,6.5049-10.6374,1.7192-21.1409,3.1567-32.0445,4.268-11.4011-.0044-21.9492,1.05-33.577,1.8277-15.7064,1.0673-30.5435,1.24-45.911,1.3418-5.7571.3481-11.0318-1.4747-11.7781-4.0411-.4335-1.56.8683-3.0366,3.2365-4.039-.4716-.0073-.9368-.0176-1.4053-.0327l-2.2254-.3091a11.1384,11.1384,0,0,1-5.036-1.8223l-1.559-1.0815c-2.0731-2.0513-5.43-3.7735-7.1265-5.9224l.38-.8071-.4009-.2354A4.5,4.5,0,0,1,5.997,29.2l.1274-.979a6.4886,6.4886,0,0,1,2.0032-3.1641,1.7662,1.7662,0,0,1,.3672-1.2056c-.9073-1.0058-1.3366-2.0561-.6187-3.2168-.5459-.29-.4554-.7168.195-.9624a2.8,2.8,0,0,1,.77-.15l-.0067-.0039a8.0143,8.0143,0,0,0-.7929-.6152c-.5426-.0855-.8563-.15-.8563-.15-1.4435-.1738-1.4435-.1738-2.6928-.34a6.7841,6.7841,0,0,1-1.7408-.8238c-1.1907-1.7519-1.1907-1.7519-1.0067-2.5058a2.4761,2.4761,0,0,1,.2309-.2149c-.9531-.2514-1.02-.2714-1.2766-.35a2.4925,2.4925,0,0,1-.4533-.2915C.2049,13.82.2049,13.82.0414,13.6733a.8653.8653,0,0,1-.04-.3062c.5325-.4511.5325-.4511.5468-.58a1.7969,1.7969,0,0,1,.3-.2207c.6231-.1368.8714-.19.9761-.2129,1.3366,1.0488,1.3408,1.0527,1.3408,1.0527l.2909-.3623.3117.4829-.1765-.4429.6765.27-.7724-.3887a13.0472,13.0472,0,0,0,2.24.146,5.5353,5.5353,0,0,0,1.3029-.062.7679.7679,0,0,1-.0589-.2363c1.71.1713,1.71.1713,3.377.3608a3.4622,3.4622,0,0,1,.3911.2915,1.2417,1.2417,0,0,1,.8083-.1563c.2929.0235.5838.0528.8748.0777.0654-.021.1285-.0415.1874-.0615a.23.23,0,0,0-.0022-.0337c.2974-.084.5033-.1407.7385-.2071l.1526-.05.0087.0054c.5087-.1426,1.2451-.35,3.195-.8984.5176.0537.9991.125,1.4544.209-.147-.065-.2876-.1289-.4239-.1993-.2722-.1425-.0239-.53-.172-.5664A107.8818,107.8818,0,0,0,6.0133,9.9765c-.7036.0464-1.3638-.1841-1.4673-.5-.0915-.3223.4107-.6113,1.1318-.6518,7.9513-2.0928,17.715-1.8072,25.8831-.1392,2.15.2046,4.3127.3789,6.4815.5449-.1044-.0649-.2079-.1289-.31-.1968.562.1031,1.1231.1988,1.6831.3.0609.0064.122.0113.1818.0142-.4259-.2368-.8507-.4751-1.2734-.7109-.2929-.0728-.5861-.1426-.8835-.2071-5.03-.2954-9.5917-1.3984-14.45-2.1025-2.6112-.3818-4.8542-1.06-7.3228-1.5635-.636-.039-1.0762-.2934-1.001-.584.0741-.2773.6666-.4751,1.2877-.4414,8.2375-.4946,17.64-.0385,24.2349,2.3863a12.78,12.78,0,0,1,4.1548.65c.0216.0024.0457.0063.0674.0083-.3159-.1978-.61-.397-.9259-.5938,1.1242.148,1.7234.6367,2.7495.8442-.1176-.27-.2615-.5376-.3791-.809C51.4034,6.73,57.4025,6.5,62.5387,7.6694c.207.0161.4.0449.5926.0727a31.0814,31.0814,0,0,1,7.0723-1.1855c-.8879-.09-1.7551-.17-2.644-.26a28.9438,28.9438,0,0,1,5.8314-.5449c5.5186.0757,11.6942,1.3237,14.6115,3.439,10.6952-.2534,21.4057-.4566,32.0771-.9727.5513-.0351,1.0459.1367,1.1438.375.0567.2363-.3072.4683-.8583.5025-7.6539.8339-15.4189,1.2753-23.199,1.6523,6.5025.4175,13.0375.81,19.701.8965q1.273-.0513,2.559-.104a15.822,15.822,0,0,1,2.5217.1274c8.5133.0137,16.5919.1465,25.2763-.4531,7.4174-.52,13.9067-1.07,21.2926-1.8164,10.3728-1.0537,19.8217-2.1172,30.0727-2.1211,1.3627-.0742,2.6252.3691,2.7854.9834.1644.61-.8246,1.1743-2.1917,1.2485-21.3765,1.897-42.3617,4.1939-64.71,3.8931-2.4108-.0337-4.7824-.0664-7.1407-.11a.7319.7319,0,0,1,.0589.2486,1.1585,1.1585,0,0,1-.6015.9018q4.0182.1245,8.0874.3936a164.9959,164.9959,0,0,1,23.1076-1.0435c5.5152.26,10.5067.9825,15.6083,1.65,6.463-.3808,12.9077-.8672,19.4362-1.1919a.7289.7289,0,0,1,.6251.1382c.0937.1192-.0469.2383-.31.2808-4.4892.76-9.0886,1.332-13.7314,1.8462.732.3828,1.1677.8784,1.109,1.4219-.0578.5639-.6254,1.0664-1.4925,1.4213,1.0524.0162,2.1047.022,3.1571.0411.65.02,1.1624.2382,1.1438.5161-.0143.3047-.5316.5215-1.1505.5136q-6.4413-.0505-12.8653-.1235c-5.1449.31-10.2715.5747-15.4262.7993a3.27,3.27,0,0,1,1.4912,1.3438l.0011.01c.7985-.0112,1.5938-.0278,2.3867-.0415a348.0788,348.0788,0,0,1,44.4914-2.1338c.2943-.0039.5372.0992.5426.232.0054.1308-.2222.2378-.487.2275q-6.8041-.142-13.5689.0239l.0185.0064c.1818.0776.2157.2226.0163.3159a1.0826,1.0826,0,0,1-.707.0083c-.209-.09-.1894-.2324-.02-.3144-8.401.2128-16.7432.7534-24.9744,1.5415,7.6494-.1314,15.2988-.2115,22.9375.04.8333-.1621,1.6634-.3262,2.51-.48a.8027.8027,0,0,1,.624.1655c.0643.1065-.1044.2383-.3409.2681-.2354.0366-.4674.08-.7014.1206,1.4466.0513,2.5621.5923,2.5382,1.2608-.08.6865-1.3225,1.2143-2.8249,1.1889-4.0229.13-8.0318.1992-12.04.232-.4337.0376-.8672.0825-1.3007.12-.4379.1045-.8716.2119-1.3074.3213,6.2345.2656,12.4568.59,18.6422.938.5305-.0059.9836.187.9946.4252.0129.2369-.4172.44-.95.4458-10.8991.9561-21.9332,1.607-33.015,2.0391-3.6374,1.0288-7.2858,2.0723-11.0015,3.0938.4674.0175.9413.03,1.4151.0312,12.0472-.0015,22.27-2.93,33.9332-3.5337.292-.0312.535.0728.5732.1919.0314.1192-.1667.24-.4629.2417-5.6931.4009-10.8882,1.4048-16.5355,2.1055-4.6786.5879-9.1277,1.1255-13.4752,1.9018,8.8892-.2783,17.4134-1.55,26.2187-2.12a1.7984,1.7984,0,0,1,1.0173.1289.3155.3155,0,0,1,.2168-.1675,27.9243,27.9243,0,0,1,3.5272-.7622.7624.7624,0,0,1,.6548.127C185.248,30.7519,185.1053,30.871,184.8438,30.9414ZM30.1772,16.85c-.0859-.0547-.1557-.1-.2211-.1426.2387.0762.4946.1567.778.2441l1.0849.97S30.9964,17.394,30.1772,16.85ZM16.5626,20.416H16.57c-.3628-.316-.6251-.545-.6251-.545C16.1987,20.0932,16.397,20.2709,16.5626,20.416ZM103.5,11.9648a109.6739,109.6739,0,0,1-13.921-.8555c1.1287-.0527,2.2529-.1054,3.38-.16Q98.2124,11.3827,103.5,11.9648ZM21.0464,13.18a15.1423,15.1423,0,0,1,3.0948,1.7715,14.5751,14.5751,0,0,1,2.511-.1313c2.3006.07,4.5425.1992,6.75.38-.2867-.3423.2427-.3013.5129-.3423.2789-.03.5546-.0528.83-.0825-2.3542-.2437-4.7159-.5118-7.1178-.8023C25.4616,13.7143,23.1074,13.5639,21.0464,13.18ZM4.6047,14.4887c-.0663-.0434-.1263-.0825-.2015-.125l.44-.51S4.7387,14.1206,4.6047,14.4887Zm-.6938.8648c.1089.0229.218.0488.3366.0717C4.1265,15.6157,4.0177,15.5463,3.9108,15.3535ZM7.0045,16a1.8469,1.8469,0,0,0-.438-.2754C7.0025,16,7.0045,16,7.0045,16ZM9.2007,31.039l1.2058-2.5566L9.0918,30.9375Z"/></g></g></svg>