<svg xmlns="http://www.w3.org/2000/svg" width="273.0266" height="19.4001" viewBox="0 0 273.0266 19.4001">
    <title>Asset 1ldpi</title>
    <g id="Layer_2" data-name="Layer 2">
        <g id="Layer_1-2" data-name="Layer 1">
            <path d="M166.0163,1.5154c-7.0125-.6221-13.8166,1.4-20.81,1.5772A158.5746,158.5746,0,0,1,116.1837,1.28C105.099-.4916,94.0776.105,83.04.0669,72.7234.0314,62.4022.8519,52.0869,1.3707c-3.729.1875-7.447.5927-11.17.8985-1.4756.3754-3.1609.36-3.9065,2.0961l-5.8068.92c-1.7874.7593-3.5652,1.5426-5.4112,2.1549-2.7663.3988-5.3756,1.7034-8.2581,1.4315-1.27,1.1078-3.018-.2069-4.2985.8479l-1.6446.826c.5084,2.0442,2.3179,1.3213,3.58,1.5682,1.4183.2773,2.9167.0191,4.3591.2208.33.21.9836.0687.974.611-.0046.2619-.5773.2192-.9208.2524a3.8118,3.8118,0,0,0-1.5013.0967A19.6432,19.6432,0,0,1,7.7068,14.8815c-1.5981.2613-3.188.63-4.7967.753-1.535.1173-2.9419.6182-2.91,2.2078.0349,1.7132,1.7654,1.43,2.9342,1.47a229.7149,229.7149,0,0,0,26.5061-.939C42.6131,17.3,55.7858,16.8755,68.9961,16.96c7.8466.05,15.696-.3286,23.5441-.5145a6.4905,6.4905,0,0,1,1.9744-1.083c4.079-1.02,8.2549,1.204,12.3134-.3761,9.1785-.4729,18.3,1.0825,27.4914.6981,4.3256-.1809,8.6674.1165,12.9443-.8091,2.3868-.7444,4.8461.116,7.2436-.3277.6461.4089,1.1622-1.0492,1.8528-.1278a.8542.8542,0,0,0,.7312-.1745l2.1721-.1375c1.2679-.5073,2.5354-.9979,3.7727.0733.66.2479-.2979,1.3792.6485,1.3537,5.27-.142,10.55.8785,15.8188-.3784,2.7478-.6555,5.5151.3,8.2722.5479a2.0042,2.0042,0,0,0,2.4227-.111c.459-.615.2408-1.6789,1.27-1.898,1.3891,1.9088,3.2517,1.9244,5.2591,1.3465.5023-1.4251.7118-.011,1.0631.1219a5.6705,5.6705,0,0,0,2.9779-.1241c1.2908-.3448,1.2215,2.1158,2.7293,1.3232,5.2564-.93,10.5589.3915,15.82-.3238,5.7733,1.3191,11.6023-.7335,17.38.29,3.3956.5019,6.9227-.5282,10.25,1.0369,1.36.6395,2.5726-.5837,3.8626-.9176A14.6589,14.6589,0,0,1,256.212,16.3a1.7912,1.7912,0,0,0,1.3843-.6419c.7458-2.2718,3.2364-.9219,4.4808-2.1587.3466-.5287.47-1.1969,1.0174-1.5967,1.0483-.5252,1.81-2.0643,3.3127-.8792.2639.279.5359.5353.8059.7938,1.3688,1.31,3.0414,1.9484,4.7817,1.2047,1.6485-.7044.8138-2.4228.867-3.6912.1069-2.5473-2.4712-.8257-3.3065-1.9511l-1.4617-.76c-.5193-.5906-1.3191-.1412-1.7954-.4468,1.154.148,2.1458-.77,3.33-.8677.4211-.4037,1.1871-.8025,1.193-1.2122.0132-.9147-.9307-1.0523-1.6182-1.0163-4.134.216-8.3088-.4676-12.4059.5454-4.0359.9853-8.0456,2.115-12.2411,2.2207-5.5911.0716-11.0383,1.35-16.5635,1.9747a39.7775,39.7775,0,0,1-11.411.1233c-.4482-.0786-1.3982-.1655-.9986-1.0392.1165-.2547.9154-.1973,1.4016-.2829-.5345-2.321-2.7459-.2345-3.715-1.4133-4.9806-.66-10.1056,1.7424-15.0018-.7075-2.2239-1.8221-4.841-.3345-7.2175-.8591a13.4186,13.4186,0,0,1-1.7373-.5136,3.43,3.43,0,0,0-1.7583.1208,32.6086,32.6086,0,0,1-11.8117.4643l.0244.0075a3.9783,3.9783,0,0,0-3.2681-.7561c-2.5743.79-5.2653.6375-7.8989.9661-.5015.0156-.0236-.6054-.1178-.1144a24.9477,24.9477,0,0,0,3.9509-.3168,1.7338,1.7338,0,0,0,.78-.7148C168.72.9141,166.899,2.3995,166.0163,1.5154Z" />
        </g>
    </g>
</svg>