<svg xmlns="http://www.w3.org/2000/svg" width="203" height="42.4004" viewBox="0 0 203 42.4004"><defs><style>.cls-1{fill:none;}.cls-13,.cls-2{opacity:0.8;}.cls-13,.cls-3{fill:#828282;}.cls-4{fill:#4d4d4d;}.cls-5{fill:#292929;}.cls-6{fill:#222;}.cls-7{fill:#959595;}.cls-8{fill:#393939;}.cls-9{fill:#404040;}.cls-10{fill:#6e6e6e;}.cls-11{fill:#2a2a2a;}.cls-12{fill:#303030;}.cls-14{fill:#454545;}.cls-15{fill:#343434;}.cls-16{fill:#505050;}.cls-17{fill:#363636;}.cls-18{fill:#2e2e2e;}.cls-19{fill:#262626;}.cls-20{fill:#595959;}.cls-21{fill:#272727;}</style></defs><title>Border 6ldpi</title><g id="Layer_2" data-name="Layer 2"><g id="Layer_1-2" data-name="Layer 1"><path class="cls-1" d="M0,21.2H203"/><g class="cls-2"><path class="cls-3" d="M3.7336,16a34.4262,34.4262,0,0,1-2.1-6.9L0,7.6,3.5,8.8c6.3,1.4,14.2336,2,19.3662,4.3a40.7994,40.7994,0,0,0-5.0472-.2246c-.5707,0-1.137.0024-1.6781.0024-1.0789,0-2.0622-.0107-2.84-.0776l.4659-.2-3.5,1.4-3.5-.1,3.5.1L3.7336,16"/><path class="cls-3" d="M105.7189,10.0835l-.1493-.05L106.4,9.5A93.1111,93.1111,0,0,0,115.9671,7.4a52.3749,52.3749,0,0,1,11.5687-1.25q1.2047,0,2.4313.05l-4.9,1.6c-.1608-.0024-.3213-.0024-.48-.0024-6.92,0-12.5837,2.0424-18.8683,2.2856"/><path class="cls-4" d="M129.5,1.7C133.2312,1,137.2.5,141.1667,0V.9c-2.1966.1567-4.5355.6206-6.9067.6206A14.9277,14.9277,0,0,1,132.3,1.4l.466.2L129.5,1.7"/><polyline class="cls-4" points="137.898 2.4 141.4 1.8 141.866 2 137.898 2.4"/><polyline class="cls-4" points="104.766 27.8 103.833 27.5 105 27.7 104.766 27.8"/><polyline class="cls-4" points="140.7 35.8 139.067 35.3 140.7 35.8"/><polyline class="cls-4" points="139.067 35.3 138.833 35.3 139.067 35.3"/><polyline class="cls-4" points="161.933 7.1 160.766 6.6 161.933 7.1"/><polyline class="cls-4" points="147.7 33.6 147.231 33.4 147.7 33.6"/><polyline class="cls-4" points="60.953 4.986 58.333 3.8 60.953 4.986"/><polyline class="cls-4" points="103.833 27.5 101.967 26.7 103.833 27.5"/><polyline class="cls-4" points="158.898 4.9 157.266 4.6 158.667 4.8 158.898 4.9"/><polyline class="cls-4" points="164.033 7.7 161.933 7.1 163.333 7.4 164.033 7.7"/><polyline class="cls-4" points="149.1 4.1 151.667 3.6 152.134 3.7 151.667 3.6 152.134 3.7 152.134 3.8 149.1 4.1"/><path class="cls-4" d="M161.9331,5.9l-3.0352-1-1.6315-.3,1.4.2a68.3243,68.3243,0,0,0-9.8-2.2l-.466.5,4.6667.3-1.4.2.4671.1.9331.1h-.9331l4.6667,1-1.8674-.7,2.3333.7H156.8l2.0974.8,3.0352.3m-4.6667-1.1h0m-4.2-1h0"/><polyline class="cls-5" points="158.667 4.8 157.266 4.6 158.667 4.8"/><polyline class="cls-5" points="152.134 3.7 151.667 3.6 152.134 3.7"/><polyline class="cls-4" points="167.533 7.9 166.366 7.7 164.734 7.4 159.833 6 158.898 5.6 161.933 5.9 167.533 7.9"/><polyline class="cls-4" points="153.067 3.8 152.134 3.8 152.134 3.7 153.067 3.8"/><polyline class="cls-5" points="153.067 3.8 152.134 3.8 153.067 3.8"/><polyline class="cls-4" points="168 8 167.084 7.931 166.366 7.7 167.533 7.9 168 8"/><polyline class="cls-4" points="167.3 8 167.084 7.931 167.3 8"/><polyline class="cls-4" points="166.676 7.9 164.033 7.7 165.433 7.7 166.676 7.9"/><polyline class="cls-5" points="152.134 3.7 151.667 3.6 152.134 3.7"/><polyline class="cls-4" points="167.3 8 166.676 7.9 167.3 8"/><polyline class="cls-4" points="167.084 7.931 166.676 7.9 165.433 7.7 164.734 7.4 166.366 7.7 164.734 7.4 166.366 7.7 167.084 7.931"/><polyline class="cls-5" points="167.3 8 166.676 7.9 167.084 7.931 167.3 8"/><polyline class="cls-5" points="166.676 7.9 165.433 7.7 166.676 7.9"/><polyline class="cls-5" points="166.366 7.7 164.734 7.4 166.366 7.7"/><polyline class="cls-4" points="165.433 7.7 164.033 7.7 163.333 7.4 165.433 7.7"/><polyline class="cls-5" points="164.033 7.7 163.333 7.4 164.033 7.7"/><polyline class="cls-5" points="165.433 7.7 164.033 7.7 165.433 7.7"/><polyline class="cls-4" points="165.433 7.7 163.333 7.4 162.167 6.8 164.5 7.4 164.734 7.4 165.433 7.7"/><polyline class="cls-5" points="165.433 7.7 163.333 7.4 165.433 7.7"/><polyline class="cls-5" points="157.734 4.8 157.266 4.8 157.734 4.8"/><polyline class="cls-4" points="157.266 4.8 156.8 4.8 154.933 4.1 157.266 4.8"/><polyline class="cls-5" points="157.266 4.8 156.8 4.8 157.266 4.8"/><polyline class="cls-5" points="156.8 4.8 154.933 4.1 156.8 4.8"/><polyline class="cls-4" points="159.833 6 158.433 5.7 158.898 5.6 159.833 6"/><polyline class="cls-4" points="164.734 7.4 164.5 7.4 159.833 6 164.734 7.4"/><polyline class="cls-5" points="164.734 7.4 164.5 7.4 164.734 7.4 164.5 7.4 164.734 7.4"/><polyline class="cls-6" points="164.734 7.4 164.5 7.4 164.734 7.4"/><polyline class="cls-4" points="145.6 27.2 142.1 26.2 146.067 27.1 145.6 27.2"/><polyline class="cls-4" points="143.967 27.6 140.7 26 144.898 27.4 143.967 27.6"/><path class="cls-4" d="M141.4,30.7c-3.2664-.1-6.3-.2007-8.8674-1.1l4.4343.4h-.2336l4.6667.7"/><polyline class="cls-4" points="141.4 30.7 136.734 30 136.967 30 141.4 30.7"/><polyline class="cls-5" points="141.4 30.7 136.734 30 141.4 30.7"/><polyline class="cls-4" points="143.033 27.7 141.866 27.2 143.967 27.6 143.033 27.7"/><polyline class="cls-4" points="152.6 27.3 151.2 27.1 152.6 27.3"/><path class="cls-7" d="M200.2,24l1.1667-.3L203,22.9A48.47,48.47,0,0,0,194.8333,21.5l.9331.4009c-3.2664-.1-5.6-1-8.4-1.3,3.9671,1.2,9.1009,1.8,12.8333,3.4m-4.4331-2.1h0"/><polyline class="cls-4" points="182.467 21.5 181.533 21.4 182.467 21.5"/><polyline class="cls-4" points="194.833 21.5 193.433 21.4 194.833 21.5"/><polyline class="cls-4" points="183.866 21.8 182.467 21.5 183.866 21.8"/><polyline class="cls-4" points="152.134 24.6 150.734 24.4 149.333 23.8 152.134 24.4 152.134 24.6"/><polyline class="cls-4" points="152.134 24.8 150.734 24.4 152.134 24.6 152.134 24.8"/><polyline class="cls-4" points="152.6 26.1 151.433 25.7 148.634 24.6 152.134 25.3 152.6 26.1"/><polyline class="cls-4" points="152.6 26.2 151.433 25.7 152.6 26.1 152.6 26.2"/><polyline class="cls-4" points="152.833 26.5 149.565 25.4 151.433 25.7 152.6 26.2 152.833 26.5"/><path class="cls-7" d="M152.1338,24.4l-2.8-.6,1.4.6c-2.5669-.3-5.6-.4-8.169-.9009a31.2573,31.2573,0,0,1,4.1232-.2451c2.3595,0,4.7192.1826,7.0786.2451l-1.6326.9009"/><polyline class="cls-8" points="152.134 24.4 149.333 23.8 152.134 24.4"/><path class="cls-4" d="M154.9331,23.3c-3.5-.6-7.466-.9-10.0352-2.2.2576-.0093.5082-.0137.7565-.0137,4.8216,0,8.193,1.7168,13.0886,1.7168.1288,0,.2588,0,.3908-.0029-2.3333-.9-6.0669-1.6-8.4-2.5,3.7336.8,7.2336,1.8,10.7336,2.8l-6.534.2"/><polyline class="cls-4" points="149.333 20.4 144.433 18.5 146.533 18.9 149.333 20.4"/><polyline class="cls-4" points="137.898 17.2 137.2 17.1 136.967 17 137.898 17.2"/><path class="cls-4" d="M142.1,18.2l-1.1667-.3-3.0352-.7-.6984-.1,4.9,1.1m-1.1667-.3-3.0352-.7,3.0352.7"/><path class="cls-4" d="M146.5329,18.9l-2.1-.4009-3.5-.5991-3.0352-.7-.9308-.2.2324.1-4.4331-1.7,5.1315.3c2.5692,1.2,5.8357,2.1,8.635,3.2"/><polyline class="cls-5" points="146.533 18.9 144.433 18.5 146.533 18.9"/><polyline class="cls-5" points="137.898 17.2 136.967 17 137.898 17.2"/><polyline class="cls-5" points="140.933 17.9 137.898 17.2 140.933 17.9"/><polyline class="cls-5" points="140.933 17.9 137.898 17.2 140.933 17.9"/><path class="cls-4" d="M136.5,15a25.0111,25.0111,0,0,1-6.7664-1.5l5.6-.2993-.7.6L136.5,15"/><polyline class="cls-4" points="83.766 32.5 81.667 31.7 82.366 31.5 83.766 32.5"/><path class="cls-9" d="M19.8333,33.5A56.2749,56.2749,0,0,1,8.4,23.4l7,.3c7.5537.7,15.1062,3.084,15.0026,6.4834A2.8929,2.8929,0,0,1,29.8662,31.7,72.849,72.849,0,0,0,19.8333,33.5"/><path class="cls-4" d="M47.6,32.2l-.9331-.4c1.6338-.4,1.8662-1.4,4.6667-1.5-.4671,1-2.1021,1.4-3.7336,1.9"/><path class="cls-10" d="M38.7336,33.4a11.6753,11.6753,0,0,0-6.9475-1.7627c-.6347,0-1.2773.0234-1.92.0625a2.8929,2.8929,0,0,0,.5367-1.5166C30.5065,26.7842,22.9539,24.4,15.4,23.7c5.7832.1743,11.5652.31,17.3486.3672q2.8931.0285,5.7843.0288c5.5895,0,11.1778-.0864,16.7673-.2959L54.6,22.9c-1.34-.085-2.6866-.1289-4.032-.1523-1.3081-.023-2.6147-.0264-3.91-.0264q-.6083,0-1.21.001c-2.412,0-4.777-.0088-7.0443-.1426a35.9508,35.9508,0,0,1-6.436-.88,69.5335,69.5335,0,0,1,9.6091-.6431c2.152,0,4.3066.0894,6.436.2632A73.9122,73.9122,0,0,1,65.8,24.9a35.58,35.58,0,0,0,7.466,1.1L69.3,25.8l-.4671.9L74.2,28.8,72.8,28.6,67.6667,28,63,27.5a23.1453,23.1453,0,0,0-2.8938-.1714H60.105a87.0441,87.0441,0,0,0-9.4713.8721l3.966.5c.6573.3.9742.6025,1.0367.9014.2611,1.29-4.3486,2.4736-7.57,2.7988L47.6,32.2c1.6315-.5,3.2664-.9,3.7336-1.9-2.8.1-3.0329,1.1-4.6667,1.5l-.9331-1.2-3.2664-1C44.1,28,38.5,28.4,38.9671,27l-5.6009-1-3.0329,1.5c4.2,1.6006,8.6338,3.3008,8.4,5.9009"/><path class="cls-11" d="M30.4029,30.1836C30.5065,26.7842,22.9539,24.4,15.4,23.7c7.5537.7,15.1062,3.084,15.0026,6.4834"/><path class="cls-12" d="M46.6667,31.8c1.6338-.4,1.8662-1.4,4.6667-1.5-2.8.1-3.0329,1.1-4.6667,1.5"/><path class="cls-4" d="M77.4671,30,74.2,28.8,72.8,28.6,67.6667,28l-.2336.2,4.4331.8-4.8991-.1a25.8512,25.8512,0,0,0,6.5329,1l3.9671.1m-2.8-.3h0M72.8,28.6,67.6667,28l5.1338.6m0,0h0"/><polyline class="cls-5" points="72.8 28.6 67.667 28 72.8 28.6"/><polyline class="cls-4" points="46.898 32.4 46.667 31.8 47.6 32.2 46.898 32.4"/><polyline class="cls-4" points="24.967 14.6 24.734 13.9 24.967 14.6"/><path class="cls-13" d="M49.4671,42.4C43.4,39.6,47.6,35.7,46.8979,32.4l.7019-.2.4671.2c3.2209-.3252,7.8307-1.5083,7.57-2.7988C55.5739,29.3027,55.2571,29,54.6,28.7l-3.966-.5a87.0441,87.0441,0,0,1,9.4713-.8721A23.1507,23.1507,0,0,1,63,27.5L67.6667,28l-.2336.2-4.2019-.4c2.3333,1,5.6021,1.1,8.635,1.2l-4.8991-.1a25.8512,25.8512,0,0,0,6.5329,1l-.7.5,2.7993,2L70.2312,31l-1.865,1A23.4538,23.4538,0,0,0,76.3,37.2c-4.9-1.6-8.6338-4.1-15.4026-4.7007l-.4648.9009-1.4-.6c1.6338,1.6992,5.1338,2.5,6.5317,4.2l-4.1984-1.6C61.6,36.5,63.7,37.3,64.4,38.2c-3.45-1.3794-3.9524-4.7017-7.9856-4.7017-.06,0-.1218,0-.1834.001-.0945-.001-.19-.001-.2837-.001-7.1811,0-7.1423,3.7378-4.147,6.5015L50.4,39.5c-2.5669.6006-.2336,2-.9331,2.9009"/><path class="cls-14" d="M55.6365,29.6016C55.5739,29.3027,55.2571,29,54.6,28.7l-3.966-.5,3.966.5c.6573.3.9742.6025,1.0367.9014"/><path class="cls-14" d="M50.6338,28.2a87.0441,87.0441,0,0,1,9.4713-.8721,87.0441,87.0441,0,0,0-9.4713.8721"/><polyline class="cls-15" points="71.866 29 66.967 28.9 71.866 29"/><polyline class="cls-15" points="67.433 28.2 67.667 28 67.433 28.2"/><path class="cls-13" d="M80.9671,26.4l.9308-.2,1.169-.6-1.4-.2,1.4.2.2336-.8-3.2676-1.1,1.865.3L79.1,22.9l3.5.7v-.5l-1.1667-.4c-2.7993-.4-5.8333-.4-8.4-1a33.816,33.816,0,0,1,3.6015-.1738c2.5508,0,5.1371.2065,7.8328.2739l.9331-.2c-3.5023-.6-7.4671-.9-10.034-2.2.2564-.01.5059-.0146.7532-.0146,4.8249,0,8.194,1.7182,13.0907,1.7182.1288,0,.26-.0029.39-.0039-2.3333-.9-6.0669-1.6006-8.4-2.5,3.7336.8,7.2336,1.8,10.7336,2.8H92.4c4.6667.4,8.8662.9,13.0669,1.3L100.1,21.4l5.3674,1.3c6.7641.7993,13.0657,1.6,19.6,2.7L119.9331,23.5c3.2664-1,7-.6992,10.034-1.0991-4.9-.7-9.1009-1.9009-13.7676-2.3,4.6667.3994,8.8674,1.6,13.7676,2.3l.9308-.1c-3.9648-1.6-9.0974-2.2-13.0646-3.4,2.8.3,5.1338,1.2,8.3979,1.3l-.9308-.4-1.4026-.1,1.4026.1a48.4135,48.4135,0,0,1,8.1667,1.4A24.7827,24.7827,0,0,1,142.8,18.5h1.6326l-3.5-.5991,1.1667.3-4.9-1.1-4.4331-1.7,5.1315.3L136.5,15a25.0111,25.0111,0,0,1-6.7664-1.5l5.6-.2993L138.6,11.9l-.466-1.7c-1.9824-1.3218-5.2136-2.1079-9.1021-2.1079-.23,0-.4636.0024-.6984.0078l.2312,1.5L127.4,8.6l-2.1,1.1L123.2,9.5a6.8942,6.8942,0,0,1-4.3169,1.1509c-1.6326,0-3.3826-.25-5.0164-.35l1.4.5a3.8113,3.8113,0,0,1-2.5839.8486A29.6309,29.6309,0,0,1,108.5,11l-2.7811-.9165c-.0877.0029-.1687.0142-.2518.0166l.1024-.0664L105.4671,10,101.5,9.7l-2.1-.6-1.169-.5,1.169.5,1.4.3-1.1667-.6,2.3333.5L97.3,8l-1.6338-.3.4671-.1-2.1009-.8L89.6,5.7,86.5646,6l2.5692-.4,1.3991-.2-4.6667-.3L86.1,4.6A59.3714,59.3714,0,0,0,79.5646,4h-.2312l-3.9671.4,3.5-.6-.2324-.9c-2.2479.0791-4.645.61-7.0719.61a13.7031,13.7031,0,0,1-1.7955-.11l.4648.2-3.4977.1q-2.9736.5881-5.7809,1.2856l1.58.7144-1.58-.7144C54.21,6.6426,48.2459,8.7617,43.8662,11.5A76.9938,76.9938,0,0,0,53.2,9.4,60.4331,60.4331,0,0,1,65.985,8.085c.4818,0,.9627.0049,1.4481.0151l-4.9,1.6h.2336L61.6,10.3l.9331-.6C55.0669,9.7,49.4671,11.9,42.7,12l1.1667-.5Q37.9137,12.4,31.9671,13.3l-4.4343,2.6,3.7336.2-2.1.5c-.3064.1753-1.5085.4458-1.6282.6943-.15.32,1.4824.606,9.0953.606l3.966-.2a49.5766,49.5766,0,0,0-11.6667,3.2l3.034.8a69.5092,69.5092,0,0,1,9.6091-.6431c2.1509,0,4.3066.09,6.436.2632A73.9122,73.9122,0,0,1,65.8,24.9a35.58,35.58,0,0,0,7.466,1.1h.4671l-1.4-.5,2.1.4009-3.2664-1.6,4.2,1.4.7007-.2007-3.5023-1,3.9683.9009.9343-.4,3.5,1.4m44.3333-4h0m0,0h0m-10.9671-2.3c3.5.7,6.5329,1.9,10.9671,2.3-4.4343-.4-7.4671-1.6-10.9671-2.3l-1.4-.3L112,19.7l.9331.1,1.4.3-.2336.3-3.7336-.3,3.7336.3.2336-.3m-10.9671,2.1h0m0,0h0M94.9671,20.5c3.2641.1006,5.3662,1.6006,8.3991,1.7007-3.0329-.1-5.135-1.6-8.3991-1.7007M99.8662,22h0m0,0h0m-7.7-1.5h-.2336L89.6,20.3l2.3333.1992h.2336c2.8.4009,4.9,1.2007,7.7,1.5-2.7993-.3-4.8991-1.1-7.7-1.5M100.1,21.4h0m11.6667-.8-1.4.3,1.4-.3m-18.9.2h0M94.9671,20.5h0m-2.8,0h0M116.2,20.1h0m-5.8333,0h0M142.1,18.2h0M46.6667,16.7,40.6,17.7l6.0669-1m0,0L40.6,17.7l6.0669-1m0,0,.9331-.1.9331-.2.9343-.1.8841-.19c.032-.0054.0616-.01.0912-.0157L51.3333,16l.9331-.2.9331-.1.9343-.2007.9331-.1992.7-.1L56.7,15l.9343-.2.9308-.2.7018-.2.9331-.2.6984-.3A57.0939,57.0939,0,0,0,51.1954,15.63l-.3292.07-.2495.0713c-.3715.0913-.7453.1807-1.1188.272l-.2667.0566-.9308.2-.52.148c-.3712.0854-.7394.1718-1.1142.2519m-15.4-.6q.6083.0241,1.2362.0234c.2838,0,.5742-.0146.8624-.0234H34.3l.9308-.1,1.169-.1.5583-.12q.7588-.1158,1.5209-.2774L38.5,15.5l.9331-.1992L38.5,15.5l.9331-.1992L38.5,15.5l-.0079.0015c.3143-.0664.6253-.1226.941-.2007a11.498,11.498,0,0,1-1.211.2295l-.6575.07L36.4,15.7l-.368.0391c-.36.0224-.7247.0424-1.09.061H34.3l-.6664.0713c-.8216.05-1.6247.1133-2.3676.2285m0,0h0M129.5,10.2h0m-.9354-.6v.3l.9354.3-.9354-.6"/><path class="cls-3" d="M46.6667,16.7c1.2213-.1992,2.4542-.3921,3.6846-.59l-.8841.19-.9343.1-.9331.2-.9331.1"/><path class="cls-3" d="M47.7808,16.4483l.52-.148.9308-.2.2667-.0566q-.8512.2073-1.7171.4048"/><path class="cls-3" d="M50.4425,16.0947A78.942,78.942,0,0,0,60.8979,13.9l-.6984.3-.9331.2-.7018.2-.9308.2L56.7,15l-.9331.2-.7.1-.9331.1992L53.2,15.7l-.9331.1-.9331.2-.8909.0947"/><path class="cls-3" d="M50.6168,15.7715l.2495-.0713.3292-.07c-.1925.0469-.3862.0942-.5787.1416"/><path class="cls-16" d="M105.4671,10.1l.1024-.0664.1493.05c-.0877.0029-.1687.0142-.2518.0166"/><polyline class="cls-15" points="62.533 5.7 60.953 4.986 62.533 5.7"/><polyline class="cls-15" points="142.1 18.2 140.933 17.9 142.1 18.2"/><polyline class="cls-15" points="137.898 15.7 132.766 15.4 137.898 15.7"/><polyline class="cls-15" points="129.734 13.5 135.333 13.2 129.734 13.5"/><polyline class="cls-17" points="46.667 16.7 47.6 16.6 48.533 16.4 49.467 16.3 50.351 16.11 49.467 16.3 48.533 16.4 47.6 16.6 46.667 16.7"/><polyline class="cls-17" points="47.781 16.448 48.3 16.3 49.231 16.1 49.498 16.044 49.231 16.1 48.3 16.3 47.781 16.448"/><polyline class="cls-17" points="50.442 16.095 51.333 16 52.266 15.8 53.2 15.7 54.134 15.5 55.067 15.3 55.766 15.2 56.7 15 57.634 14.8 58.565 14.6 59.266 14.4 60.2 14.2 60.898 13.9 60.2 14.2 59.266 14.4 58.565 14.6 57.634 14.8 56.7 15 55.766 15.2 55.067 15.3 54.134 15.5 53.2 15.7 52.266 15.8 51.333 16 50.442 16.095"/><polyline class="cls-17" points="50.617 15.771 50.866 15.7 51.195 15.63 50.866 15.7 50.617 15.771"/><polyline class="cls-17" points="40.6 17.7 46.667 16.7 40.6 17.7"/><polyline class="cls-17" points="40.6 17.7 46.667 16.7 40.6 17.7"/><path class="cls-14" d="M73.2664,26A35.58,35.58,0,0,1,65.8,24.9a73.9122,73.9122,0,0,0-17.7882-3.58A73.9122,73.9122,0,0,1,65.8,24.9a35.58,35.58,0,0,0,7.466,1.1"/><path class="cls-14" d="M31.9671,21.7a69.5092,69.5092,0,0,1,9.6091-.6431,69.5335,69.5335,0,0,0-9.6091.6431"/><path class="cls-3" d="M34.3,16.1H33.365a29.3848,29.3848,0,0,0,3.5936-.3193L36.4,15.9l-1.169.1-.9308.1"/><path class="cls-3" d="M33.6341,15.8716,34.3,15.8h.6414q-.658.0322-1.3078.0713"/><path class="cls-3" d="M36.0323,15.7393,36.4,15.7l1.1643-.1.6575-.07c-.6963.1006-1.4322.1641-2.19.21"/><path class="cls-3" d="M38.4795,15.5034l.0126-.0024L38.5,15.5l-.0205.0039"/><polyline class="cls-4" points="25.667 14.7 26.134 14.6 25.667 14.7"/><path class="cls-9" d="M27.5329,15.9C21.7,15.5,16.1,14.3,10.2664,14l3.5-1.4-.4659.2c.7782.0669,1.7638.0781,2.8427.0781.5388,0,1.1051-.0029,1.6758-.0029a40.7994,40.7994,0,0,1,5.0472.2246l1.8674.8V14l.2336.6-1.4026.6,2.1021-.5.4671-.1,5.8333-1.3-4.4343,2.6"/><path class="cls-18" d="M16.1432,12.8784c-1.0789,0-2.0645-.0112-2.8427-.0781.7782.0669,1.7614.0776,2.84.0776.5411,0,1.1074-.0024,1.6781-.0024-.5707,0-1.137.0029-1.6758.0029"/><polyline class="cls-18" points="13.3 12.8 13.766 12.6 13.3 12.8"/><polyline class="cls-19" points="24.967 14.6 24.734 14 24.734 13.9 24.967 14.6"/><polyline class="cls-18" points="27.533 15.9 31.967 13.3 27.533 15.9"/><path class="cls-9" d="M26.5382,22.3555A82.5194,82.5194,0,0,1,14.9331,21.1c3.034-2,8.4-3.5,12.6-5.2l3.7336.2-2.1.5c-.3064.1753-1.5085.4458-1.6282.6943-.15.32,1.4824.606,9.0953.606l3.966-.2a49.5766,49.5766,0,0,0-11.6667,3.2l3.034.8L30.1,22a12.6359,12.6359,0,0,1-2.57.3345c-.3213.0137-.6494.021-.9912.021"/><path class="cls-18" d="M28.9331,20.9A49.5766,49.5766,0,0,1,40.6,17.7a49.5766,49.5766,0,0,0-11.6667,3.2"/><path class="cls-18" d="M27.5385,17.2944c.12-.2485,1.3218-.519,1.6282-.6943l2.1-.5-2.1.5c-.3064.1753-1.5085.4458-1.6282.6943"/><path class="cls-20" d="M38.5331,24.0962q-2.8935,0-5.7843-.0288C26.9654,24.01,21.1834,23.8745,15.4,23.7a41.247,41.247,0,0,0-5.2512-.3374q-.8768,0-1.7488.0376A36.5064,36.5064,0,0,1,3.7336,16l6.5328-2C16.1,14.3,21.7,15.5,27.5329,15.9c-4.2,1.7-9.5657,3.2-12.6,5.2a82.5194,82.5194,0,0,0,11.6051,1.2554H26.54c.34,0,.6676-.0073.9889-.021A12.6359,12.6359,0,0,0,30.1,22l1.8674-.3a35.9508,35.9508,0,0,0,6.436.88c2.2673.1338,4.6324.1435,7.0443.1435.4011,0,.8066-.0009,1.21-.0009,1.2966,0,2.6033.0024,3.91.0254,1.3454.0234,2.6922.0673,4.032.1523l.7007.9c-5.59.2105-11.1779.2959-16.7673.2959"/><path class="cls-15" d="M38.5331,24.0962c5.5895,0,11.1778-.0854,16.7673-.2959-5.59.21-11.1779.2959-16.7673.2959"/><path class="cls-15" d="M32.7488,24.0674C26.9654,24.01,21.1834,23.8745,15.4,23.7c5.7832.1743,11.5652.31,17.3486.3672"/><path class="cls-15" d="M50.5678,22.7481c-1.3069-.023-2.6136-.0254-3.91-.0254-.4034,0-.809.0009-1.21.0009-2.412,0-4.777-.01-7.0443-.1435,2.2673.1338,4.6324.1426,7.0443.1426q.6016,0,1.21-.001c1.2955,0,2.6021.0034,3.91.0264"/><path class="cls-21" d="M26.54,22.3555h-.0023c.3418,0,.67-.0073.9912-.021-.3213.0137-.6494.021-.9889.021"/><path class="cls-21" d="M14.9331,21.1c3.034-2,8.4-3.5,12.6-5.2-4.2,1.7-9.5657,3.2-12.6,5.2"/><path class="cls-4" d="M15.4,23.7l-7-.3q.8732-.0374,1.7488-.0376A41.247,41.247,0,0,1,15.4,23.7"/><polyline class="cls-19" points="15.4 23.7 8.4 23.4 15.4 23.7"/></g></g></g></svg>