<svg xmlns="http://www.w3.org/2000/svg" width="144.5096" height="138.7048" viewBox="0 0 144.5096 138.7048"><defs><style>.cls-1{fill:#fff;}</style></defs><title>border-imageldpi</title><g id="Layer_2" data-name="Layer 2"><g id="Layer_1-2" data-name="Layer 1"><path d="M110.056,2.1657c-3.96.2544-10.7516-.1567-9.624-1.0767L99.63.5231C102.9975.6154,117.0623.633,110.056,2.1657Z"/><path class="cls-1" d="M111.0065,6.2682c-3.4246-.3183-.8045-.5664-.2093-.91l4.71.0815C116.9391,5.8864,112.9821,6.1418,111.0065,6.2682Z"/><path d="M109.01,14.9592l1.3915.2192a33.8382,33.8382,0,0,0-4.7557-.31c-.1143-.457,2.4564-.9306,5.1826-.72C110.2419,14.4938,107.57,14.5114,109.01,14.9592Z"/><path d="M40.5325,5.4889c-1.0192,1.3775,3.4644,3.4024,9.1338,4.733L47.5276,12.52C43.2469,11.4074,34.6855,12.0368,28,12.0817c-2.5684.4737,6.2047.7578-.3753,1.2578-.7441-.3369-.2058-.9116-1.5974-1.1308a18.496,18.496,0,0,0-5.2062,1.3771,15.1729,15.1729,0,0,1-3.3889.5436c-.8031.0553-1.7578.0885-2.9128.0926a5.1738,5.1738,0,0,1-.9018-.0813A9.4945,9.4945,0,0,0,11.76,13.1325l-.1035.039.2948,11.8114c.177,5.5889.3544,11.1908.5307,16.7583.3321,11.1356.52,22.1378-.0369,32.6446,1.1674,3.7424.7832,14.5509,1.5131,21.074l-.685.1542c1.1665,3.7483-.2744,10.11-.1279,14.7632l-.6568,4.1687c-1.1313,1.595-.5371-11.9279-2.2241-8.1891-.9663,8.9279,1.585,15.0353.3809,22.672L10.59,130.44c-.0092.288-.0093.5436-.0017.7685a4.6817,4.6817,0,0,0,.1253,1.0221,2.586,2.586,0,0,0,.5253.9542,11.167,11.167,0,0,1,1.1482-.2822c.4571-.3469.4166-.5157.4259-.698-.0036-.1823.04-.3781.4316-.779a3.2774,3.2774,0,0,1,1.056.0058c.0973.0139.1058.0308.276.05l1.133.0671c.7348.05,1.43.11,2.0915.1782,2.648.2728,4.7717.6757,6.8334,1.0828a60.5549,60.5549,0,0,0,15.3244,1.4814c.5354-.5752,12.2434-2.0249,1.34-2.8647l-5.1849.7207-3.5307-.7754c4.0116-.0269,11.39.0371,10.537-.7559,5.2858,2.59,27.55-2.47,16.4151,1.4873-6.8462-.6391-8.8306-.51-13.2685.5464,15.4587.2378,29.0854,1.2871,41.8185,1.315l3.7418-1.1661c.2692,1.1392,6.4738,1.8965,12.5613,2.1983,2.62-.2481,5.993-.1543,5.1855-.7207,1.1828-.6929-22.1876-.4209-11.2729-2.4351,14.168.4751,29.1429,1.5166,38.225,3.167-6.6339.273-11.39-.0376-18.3994,1.4951-23.7421,1.53-49.4575.3335-72.4608,2.2017-.8532-.7935-6.9523-1.0942-5.1257-1.9063-2.1386-.5561-8.0284.0542-9.6234-1.0771-3.8813.25-7.9093.4144-12.0018.5173l-5.8321.1114-5.0466.0374.0318-6.4919.0859-7.8262c.062-5.13.1214-10.0537.1763-14.5953-2.0234,4.4895-1.32-9.7354-2.15-14.2249.8848-4.2262.4927-11.4987.4576-16.8449-.3472-.587-.4825-3.9054-1.0489-3.1009.2554,3.957-.1914,5.3972-.393,9.46-1.4942-1.6607.0556-8.7157.13-14.7573l.82,3.1554c.0464-10.0532,2.5913-22.0246,1.16-31.0692L5.8726,47.7915c-.3239-5.6148.0047-11.8824.1933-17.7835.0943-2.9506.1536-5.81.0788-8.45-.0374-1.32-.1083-2.5852-.2251-3.78q-.0876-.8959-.2112-1.7368c-.0829-.5846-.1788-1.2181-.2894-1.8219l-.08,1.66-.0483,1.55-.03,3.2666L5.2763,27.18c-.03,4.024-.2372,7.0841-1.2084,6.9739-1.03-.4269-.9751-9.1425-.5464-13.2632q.1857-1.713.2995-3.3772l.1-1.6633.07-2.1491c.0743-2.83.0757-5.5525.032-8.3068,1.9383-.0318,3.8433-.0875,5.7586-.1564l2.8815-.112,2.63-.1239c2.8561-.17,5.658-.35,8.4427-.455A74.7842,74.7842,0,0,1,40.5325,5.4889Z"/><path d="M16.3148,2.1144l-5.1522.1c-1.8094.0551-3.2933.13-4.52.22a29.3041,29.3041,0,0,0-4.9087.6715C2.1219,5.4691,2.547,7.02,2.8564,9.4608c.1547,1.2181.28,2.6475.3582,4.5047.0778,2.145.1075,3.4338.07,5.646-1.039-1.77-1.9062,5.1222-1.99,9.8322.6025,4.5469.1831,10.0016.2114,14.0073C1.2945,46.1825.0367,45.8077,0,40.4533A87.2361,87.2361,0,0,0,.6255,24.42L.2861,16.0671Q.2137,12.4.1423,8.7859C.1063,6.3156.0851,3.8577.0879,1.46c3.1055.0035,6.19.0469,9.1522.1495,1.4805.0513,2.93.1174,4.331.2007l1.001.0658.5864.0725Z"/><path class="cls-1" d="M29.0338,7.85c-7.3329.1635-4.5417-2.2525-11.76-1.6333,3.0493-1.2754,4.0057-.0264,10.6912-.0723l-3.8538.7129Z"/><path d="M3.2281,45.063c.146,4.656-.4658,15.502-1.833,15.8228-.11.6925-.8033-.4844-.5567,2.1386C1.2662,58.9044,1.4136,46.824,3.2281,45.063Z"/><path class="cls-1" d="M8.6832,24.3819c.2456,2.6194.2631,5.294.291,9.3C8.7281,31.0616,8.1353,27.8575,8.6832,24.3819Z"/><path d="M5.7808,51.1645c1.0215-.91.2544,3.96.2637,5.2917l-.4375,2.786A26.8911,26.8911,0,0,1,5.7808,51.1645Z"/><path d="M2.7417,91.3651c-.4106,6.7917-1.3027-7.0608-1.478,1.0162L1.12,87.7288l1.5859-1.7094Z"/><path d="M1.3287,101.7362a24.8914,24.8914,0,0,1,.1626,7.3329L.9078,107.19C.6709,105.9137,1.3462,104.41,1.3287,101.7362Z"/><path d="M4.9224,92.8686c.3638,3.27-.4385,2.7831-.7666,4.87C3.691,96.502,4.7847,89.5584,4.9224,92.8686Z"/><path d="M14.503,125.4583c-1.2759-3.0493-.5191-9.2516-.9014-15.19C13.9839,116.2067,14.6861,118.7183,14.503,125.4583Z"/><path d="M143.3853,30.0377a25.7275,25.7275,0,0,0,.2818,7.9656l.4477-1.449Z"/><path d="M118.3447.3976c-2.9947,1.5039,2.1908.7832,7.8056,1.8882l1.2826.0361,1.4193.01,4.4106-.0468c2.9664-.0565,6.0089-.1582,9.1471-.2717l.3964,10.5653L142.94,17.08c.0305,1.01.0448,2.0154.036,3.0137l.83,4.4924c.127-2.1939.2512-4.8007.3546-7.6417l.0378-1.0969.0356-2.1528.0638-4.4328.0923-9.228L134.9485,0l-4.7152.01-3.1847.03C123.9568.0944,120.9937.2073,118.3447.3976Z"/><path class="cls-1" d="M112.7159,7.8561c5.5253.648,12.5736-.4282,16.68-.455-6.838-.1841-15.4813-.2388-20.2079-.32C108.5953,7.4274,111.3244,7.6359,112.7159,7.8561Z"/><path d="M144.211,101.4764c-.063-9.3542,1.105-22.3447-.791-32.6185-.3115,4.7616-.7666,4.8677-1.0586,12.295-1.979-5.5632.2656-11.4418.2192-18.1274-.4184,5.4576-1.2666-1.7064-1.413-6.3654.5107-8.8189.3027-22.8315.2211-34.8661-.0979-.7043-.1614-1.6271-.2029-2.6895l-.0473-1.6886-.0235-2.0187L141.0728,3.35c-3.1917.0348-5.97.112-7.7181.29-1.76.1783-2.4462.4575-1.7558.8962l-1.8529.0123-1.5292-.0222c-.74-.0254-1.4024-.0713-2.008-.1322a26.9089,26.9089,0,0,1-3.1207-.5049,38.5028,38.5028,0,0,0-6.1919-1.086C100.69,5.0827,87.82-1.3382,70.3767,1.4064,71.45.257,62.7916.4289,59.4187.3386,52.0429.2746,34.611.1633,38.4537,2.3073c5.0248,1.45,15.1842-.9014,22.8831.5288C74.5941,5.1447,47.49,3.73,47.27,5.6711c1.9269-.3535,2.9924,1.3515,8.8734.7392-12.5155.8848,5.18,2.1363-1.2367,3.3208,14.3275,1.1592,12.9934,1.168,20.26,3.63,8.61-.4009,6.2076-2.0967,8.67-3.0273,9.142-.9746,16.3488,1.2607,24.2775.75-2.998,1.5044.3162,2.0814,5.5492,2.2745,2.6165.0966,5.7127.0971,8.74.07l4.4194-.0537,1.816-.0267.5973-.0181a5.5169,5.5169,0,0,0,2.1834-.3249c.3514.3172.9181.0634,1.3726.3594a1.7244,1.7244,0,0,1,.5568,1.1726,9.7566,9.7566,0,0,1,.1386,1.3228c.0256.8343.0288,1.8867.0045,3.09-.72,3.18-1.1984-.0564-1.6895-3.0389-.2455-.6389-.4943-1.046-.7779-1.0887-.2837-.0563-.6023.3062-.9877.7876q.0763.124.1526.2761l.1526,1.449.3052,2.9408c1.167,3.7506,2.6714,6.7459,3.501,11.2413.0181,2.674.0454,6.6855-.4106,6.7887-.4927-5.2459-1.6231-3.6421-2.2705,1.8724a22.0194,22.0194,0,0,0,1.0571,4.4355c3.2373-10.7921.1885,11.341,2.0684,18.929,2.66,22.1471-3.8023,11.599-2.4,33.3655,2.8086-6.6767,1.4668,14.3908,2.5429,21.5033-.0727,6.0417-.8584,8.2348-1.7431,12.4551.3081,1.6607.4673,6.3255,1.0127,7.0327,3.7641-3.373,7.3095-17.3773,10.4272-35.5164C144.36,101.8886,144.2911,101.4623,144.211,101.4764Z"/></g></g></svg>