<svg xmlns="http://www.w3.org/2000/svg" width="137.8116" height="14.8051" viewBox="0 0 137.8116 14.8051"><defs><style>.cls-1{fill:#010101;}.cls-2{fill:#161616;}.cls-3{fill:#030303;}</style></defs><title>Asset 2ldpi</title><g id="Layer_2" data-name="Layer 2"><g id="Layer_1-2" data-name="Layer 1"><path class="cls-1" d="M24.0308,14.62a3.8461,3.8461,0,0,1-4.3683-1.2981A13.8769,13.8769,0,0,1,8.27,11.073c-2.6317.5842-4.9334.5887-5.3457-2.9228a1.4931,1.4931,0,0,0-.5584-.9374c-4-2.8088-2.3988-4.84.893-6.6544,4.5252-.52,9.0564-1.1737,13.4763.6145,2.5327-.474,4.7977,1.3892,7.339.8407a1.1072,1.1072,0,0,1,.3144,1.0635c-.4669,1.0651-1.419,1.131-2.3855,1.1583a7.6928,7.6928,0,0,1-2.009-.0881,10.9129,10.9129,0,0,0,2.4438.1063c2.9763-.3935,5.9892-.0872,8.9558-.5543A3.154,3.154,0,0,1,33.15,4.041c.9417.7577,1.6707,1.53,3.2232.8555C40.1543,3.2537,44.0869,4,47.9608,4.7375a1.7562,1.7562,0,0,1,.4648.8595c1.127,1.651,2.7492.4072,4.1128.6694,2.29-1.197,4.7828-1.0413,7.2441-1.1195A3.5047,3.5047,0,0,1,62.3538,5.7c6.7876,1.2585,13.6847.5505,20.5157,1.1439,6.3946.5555,12.8173.7876,19.2276,1.1621.6248.8778,3.3824-.37,2.2509,2.2581-3.6979,1.0643-7.5293-.1214-11.2436.6674a30.1768,30.1768,0,0,1-6.8592.5617,202.1366,202.1366,0,0,0-21.8595,1.2478c-1.7334.2227-3.4927-.1534-5.1881.3454-1.2062.62-2.5955.04-3.807.5546a.7864.7864,0,0,1,.44.4719c.1057.3066.0024.4835-.3049.5412l-5.8872.0218a7.2358,7.2358,0,0,0-1.3893-.5989c-1.687-.5025-3.374-.9118-5.0887-.0787-4.9.7911-9.8278.1553-14.7344.3738C26.9605,14.4377,25.4718,14.12,24.0308,14.62Z"/><path class="cls-2" d="M125.3413,8.05l12.47.853-.02.9969c-5.7467,1.8714-11.71,1.2071-17.6305,1.0423a.6732.6732,0,0,1-.2317-.6061c.0379-.2186.0849-.328.1382-.3291C121.4063,8.2276,123.8348,9.3822,125.3413,8.05Z"/><path class="cls-3" d="M118.61,10.1141q-.0013-.3233-.0074-.6465c.677-.3858.0719-2.0931,1.6247-1.5762l5.1142.1585c-1.1463,2.3088-3.7128,1.2685-5.4042,2.2917C119.4325,10.6283,118.9567,10.7468,118.61,10.1141Z"/></g></g></svg>