<svg xmlns="http://www.w3.org/2000/svg" width="203" height="19.1801" viewBox="0 0 203 19.1801"><defs><style>.cls-1{fill:none;}.cls-2{fill:#202020;}</style></defs><title>Border 5ldpi</title><g id="Layer_2" data-name="Layer 2"><g id="Layer_1-2" data-name="Layer 1"><path class="cls-1" d="M0,9.5636H203"/><path class="cls-2" d="M59.3889,2.2263c-.086-.0369-.1286.0305,0,0Z"/><path class="cls-2" d="M125.99.7612a.4159.4159,0,0,0,.0651-.0044c.0474-.2.0916-.3728.1341-.5042Z"/><path class="cls-2" d="M136.7028,2.0095c.0249.022.0421.0337.0653.0537C136.7625,1.9431,136.7756,1.8232,136.7028,2.0095Z"/><path class="cls-2" d="M101.3055,2.6272a.1678.1678,0,0,0-.1816.0976A.4342.4342,0,0,1,101.3055,2.6272Z"/><path class="cls-2" d="M39.7579,3.2927s.0269-.01.0468-.0176a1.236,1.236,0,0,1-.1152-.1208Z"/><path class="cls-2" d="M39.9732,2.9506c.2365.1473-.0651.2832-.1685.3245a.6252.6252,0,0,0,.7865.168C40.5894,3.134,40.09,3.1806,39.9732,2.9506Z"/><path class="cls-2" d="M4.1458,4.1486l.107-.1247A.4545.4545,0,0,0,4.1458,4.1486Z"/><path class="cls-2" d="M102.3574,17.7846c-.0527.0281-.1125.042-.1611.0733A.1561.1561,0,0,0,102.3574,17.7846Z"/><path class="cls-2" d="M9.767,4.456l.0616-.49A1.5965,1.5965,0,0,0,9.767,4.456Z"/><path class="cls-2" d="M126.1892.2526l.0777-.1911A1.04,1.04,0,0,0,126.1892.2526Z"/><path class="cls-2" d="M146.6,2.3266a1.6115,1.6115,0,0,0,.0527.3726.0891.0891,0,0,1,.028.0036Z"/><path class="cls-2" d="M196.4926,10.1167a1.3089,1.3089,0,0,0-.0265-.1912l-.1992.3484A.3881.3881,0,0,0,196.4926,10.1167Z"/><path class="cls-2" d="M160.178,4.4494a.97.97,0,0,0,.0463-.17,3.52,3.52,0,0,0-1.6277-.1811l-.0479.6013Z"/><path class="cls-2" d="M175.0258,18.4712l-1.4472-1.21c4.6455-.5564,6.813.656,10.7889-.32l-.22.2622c.5789.28.9054-2.437,7.3.8816v.1209c.2219-.0208.22-.2625.6636.06l-1.1053-.7412a6.23,6.23,0,0,1,2.1236-.9638.7886.7886,0,0,1,.27.5759l2.1651-.2024.6636.7815c.6619-.4238.36-2.073,2.1307-1.1543-.6674-1.1443.8785-.6863.66-1.2688.0893.1416.2923.3528.4556.5488,1.0526-.1328,3.0356-.4536,3.5263-1.0412a35.04,35.04,0,0,1-5.2277-3.6331c1.4823.3108.3909-.14.0986-.5249l-.0986.2849c-.8882-.2793-.8882-1.0017-1.3321-1.2021a1.2961,1.2961,0,0,0,.0258.2l.0567-.0967a.3092.3092,0,0,1-.03.2879c.0108.1545-.03.2761-.272.2329l.0463-.0757a3.4811,3.4811,0,0,1-1.29-.06l-.0055-.6035c-.6581,1.1492-4.4246-1.7529-5.3084-1.791-.8877-.761-1.9893.1882-3.0976-.1926-1.7667-.1944-.8838-.88-1.77-1.4009-1.1079-.3784.2242.7036-.22.7441l-1.3272-.8393c.7713-.0723.3528-.4363.2116-.6695-1.1472-.1025-2.9562-1.209-3.3092-.0053-1.5478-.5765-1.5516-1.0589-2.2152-1.1184.2224.22.6636.4189.6674.6621-.62-.5313-.2963.1311-.0426.2495-.9458.5232-4.9078-2.1949-5.1066-.8728V4.1355c-.22.9843.133,1.94-.5273,2.4843l-.4406-.44-.6636.4231c-.445-.32-.2261-.5818-.2261-.7024-1.081.4546-2.5891-.0879-3.8985-.22l1.3868,2.6841c-1.1046-.62-3.0974-1.8784-3.3178-1.0144l-.6636-.9023c-2.2147-1.7217-1.5463.748-2.43.2292L161.56,5.6948l1.1068.0171a11.3413,11.3413,0,0,1-2.4323-1.4593c0,.01-.01.0169-.01.0264a.2174.2174,0,0,1,.1083.1465l-.1546.0239a1.3672,1.3672,0,0,1-1.4913.7932c-1.1075-.1379-1.9734.5862-3.7418-.4538l-.441,1.0046-1.3277-.5986v-.8c1.3007.0479,3.7487-.2566,5.42-.2973l.03-.3653c-.9914.0012-2.1192.3553-2.7742.2757-.3195-.16-1.1366-.9915-.5436-1.5308l-.6124.7825a16.1572,16.1572,0,0,1-6.7841-.7776l.3.4016c-.685.2358-1.368.4656-1.5586-.1848A10.8578,10.8578,0,0,1,141.085,1.05l-.2947.9423c-.4379-.052-1.0945-1.4758-1.3076-.1567l-.9356.416c-.5985-.072-.9652.4663-1.6467-.0747V2.1767l-.0038-.0024a1.6066,1.6066,0,0,1-.1286-.1111.5036.5036,0,0,0,.0075.0784c-1.3546-.4165.0135.8447-1.5377.3022-.4977-.67-.55,1.1961-1.3063.9822l-.7589-1.3516c-1.37-.7756-1.6039.58-3.5881.5843A1.8438,1.8438,0,0,1,128.8026,0c-.8677,1.24-.3949.8078-1.5458,1.4023-.1772-.5095-.0545-.6177.2-1.0757-1.0223-.5971-.6307.4605-1.4016.43-.2239.96-.482,2.488-.7324,2.55l.2985.3a2.5582,2.5582,0,0,1-2.6566.27L123,3.394l-1.01.2446-.0635-.6174-1.4419.1914.1977.1665a3.6618,3.6618,0,0,1-2.0859-.0283l.0232-.3428c-1.7936-1.07-3.2721.3318-5.3726.4448l.2758-.7c-.7155-.6958-.1961,1.0777-1.0488.73l-.0426-.86c-.7507,1.13-.97-.24-1.4876-.6675l.2418,1.1267-.9742-.2375C109.1386,2.47,109.5532,1.4206,109.71.83l-.73.8879-.1427-.9944c-.5337,1.157-.5337-.1862-1.4693.4346-.077-.3762.16-.592-.1584-.7522l-1.5425,1.4026.93-.6216-.1132,1.4536c-.9689,1.1031-1.3126-.1584-2.0047.2471l.4767-.4319c-1.13.3528-1.19-.2656-1.8271-.5874.1977.27.5.6714.0426.8616-.3356.08-.182-.511-.4993-.6714-.0759.9683-.886,1.4812-1.6206,1.0247a.9328.9328,0,0,1,.0726-.3587c-.1873.1568-.2844.4063-.6107.1736l.1922-1.0764-.6279,1.0246c-.4185-.2946-1.0294.4861-.9744-.24l.238-.2156-3.1718-.26L96.1253,1.27c-.3135,1.1846-1.7274-.45-1.6235,1.0286-.5983-.8062-2.3557.57-2.0036-1.0982-2.0837-.1286-3.2095,1.4761-5.7426.6646-.9021-1.4158-3.3743-.9573-5-1.1069-3.1781.592-5.2318,1.1247-8.48,1.5783-1.9535-1.9758-4.8729.68-6.9751-.436l-.5758.7849c-1.3971-1.25-3.5309.2793-5.4915-.9392a2.9871,2.9871,0,0,1-.8441.48c.0889.0376.2242.1865.2667.6845-.56-.35-1.6923.0882-1.6116-.9069l.1423-.1023c.0823-.9954-1.699.4651-2.3237-.397l.3426,1.0664-1.0605-.18.2839-.2048C50.8225,4.5532,48.7413,1.17,44.4157,3.332c.5736-1.1633-.8527.6111-.9091-.66-1.0907-1.6-2.0208.3452-2.9154.7715a.48.48,0,0,1-.062.2336l-1.5635-.1521C39.9,1.9167,37.84,4.8579,38.6974,3.49c-4.0767-1.2024-9.3966.0225-14.116-.532l.2069.4136c-1.1968-.0791-2.6855.4228-3.5936-.2378s-1.9864,1.05-2.3387,1.1155c-.9954.7121-1.9008-.7036-1.4734-.6309-1.0645.1973-2.0652,1.666-3.542,1.0357C13.3359,3.2912,9.8113,5.9919,9.767,4.456l-.0161.1294c-1.8915-1.0815-3.6758.7586-5.713-.2207a1.0644,1.0644,0,0,1,.1079-.2161L0,8.8088l1.1807,5.1287,3.5936,4.1648,9.7386-.9031,7.7726,1.6286,18.9159-.5507L42.5522,17.12c3.7169,2.023,8.4835-.3039,12.4881,1.14l.0829-.9961c1.1284-.0591,1.0519.5581,1.331.7319,10.5012-.2207,21.3121-1.5478,30.76-.292.9109.6585,3.6821.271,4.3966.9673,3.069-1.2183,6.32-1.2063,9.3928-1.0808l-.1163.11,1.4472-.1919a.26.26,0,0,1,.0225.2766c1.6325-.8818,4.2045-.0095,6.2036.3494l-.1167.1086c11.6629.1812,22.49-1.6779,34.0577-.2878,5.3779,1.625,11.6345-.6182,17.8048.7356C161.4395,19.6816,173.9227,18.9375,175.0258,18.4712Z"/><path class="cls-2" d="M193.3989,17.1367l-.0481.0049C193.353,17.5608,193.4247,17.4023,193.3989,17.1367Z"/><path class="cls-2" d="M167.6151,5.67c.028.0029.0549.0073.0814.0107l-.3064-.592Z"/><path class="cls-2" d="M184.1309,5.3232c-.7421-.1313-.7766-.03-.6722.1384A.9351.9351,0,0,0,184.1309,5.3232Z"/><path class="cls-2" d="M199.4614,16.3379c.39.0332.2414-.2168.0124-.4964-.3975.0513-.6742.0757-.6742.0757C199.0181,16.0168,199.2368,16.2375,199.4614,16.3379Z"/><path class="cls-2" d="M197.871,10.6423l.1216-.34C197.7631,10.3855,197.7723,10.5095,197.871,10.6423Z"/></g></g></svg>