<svg xmlns="http://www.w3.org/2000/svg" width="203.3658" height="44.2393" viewBox="0 0 203.3658 44.2393"><defs><style>.cls-1{fill:none;}</style></defs><title>Border 4ldpi</title><g id="Layer_2" data-name="Layer 2"><g id="Layer_1-2" data-name="Layer 1"><path class="cls-1" d="M.3658,22.1329h203"/><path d="M197.2,38.2134c-.8714-.1894-1.7438-.3808-2.6075-.5566C178.6,34.9576,162.6082,35.8575,144.84,34.0577c-12.4381-1.8-26.6518-.9009-39.0869-.9009C135.23,34.816,166.21,34.188,194.5311,40.42a17.2374,17.2374,0,0,1-10.2673,3.8193c-9.5848-.8379-19.0442-1.4243-28.4256-1.8267V38.8384c-26.6518,2.7007-51.53-4.5-78.1815,0,.9476.48.3856,1.2134.1889,1.7949-.0655.0025-.1283.0035-.1889.0049.0606-.0014.1234-.0024.1889-.0049-.1775.5108-.0685.9058,1.59.9058-1.6581,0-1.7671-.395-1.59-.9058,26.22-.8764,50.7365-.0092,76.9208,1.7364-40.6564-1.6841-79.855.0688-121.5293.0688H26.1317a59.0536,59.0536,0,0,0-21.32-3.6c1.7738-4.5-5.3335-13.5,8.8839-11.7V23.5391C-.522,19.0391-5.8537,6.4385,8.3639,2.8384c15.9893-3.5991,37.3123,0,56.8537-1.7993,14.2176-.9,28.4331-1.8,42.643,0,19.5444,2.7,40.8674,1.7993,60.4089,5.3994,7.11.9,19.5494-1.7993,23.1043.9,2.5526,1.2935,2.6539,3.2095,2.2634,5.3462-11.6824-.3174-23.329-.416-34.8455-.8086-14.1278-1.0083-28.2568-2.1289-42.3759-3.9184,13.8088,2.4687,27.99,3.4272,42.3759,3.9184,11.49.8208,22.9878,1.5679,34.4793,2.5327-.42,1.8369-.8242,3.753-.1234,5.53h5.3288c7.11,4.5,5.3288,10.8008,1.7813,15.3008C199.3519,36.1534,198.3347,37.1841,197.2,38.2134Z"/></g></g></svg>